<svg viewBox="0 0 165 22" fill="none" xmlns="http://www.w3.org/2000/svg" class="jss4"><path fill-rule="evenodd" clip-rule="evenodd" d="M78.85 0v21.416h-4.191V7.472l-13.91 13.91-3.283-3.282 13.91-13.91H57.434V0H78.85z" fill="#063C4F"></path><path d="M8.213 21.416c4.757 0 7.97-2.453 7.97-6.371 0-8.285-11.152-4.756-11.152-9.123 0-1.226 1.12-2.064 2.909-2.064 2.03 0 3.303 1.077 3.455 2.722h4.333C15.607 2.602 12.516 0 7.94 0 3.637 0 .606 2.453.606 5.922c0 8.226 11 5.085 11 9.183 0 1.585-1.363 2.423-3.393 2.423-2.243 0-3.667-1.346-3.85-3.47H0c.182 4.457 3.394 7.358 8.213 7.358zM23.137 21.177h4.424l4.213-13.939 4.212 13.939h4.485L46.744.239h-4.606l-4.091 14.327L33.683.24h-3.849l-4.333 14.327L21.44.24h-4.607l6.304 20.938zM49.156 21.177h4.576V.239h-4.576v20.938zM92.946 21.416c5.424 0 9.334-3.021 9.727-7.508h-4.545c-.364 2.154-2.455 3.62-5.182 3.62-3.425 0-6.061-2.333-6.061-6.82s2.636-6.85 6.06-6.85c2.668 0 4.759 1.466 5.062 3.65h4.757C102.189 2.99 98.279 0 92.946 0c-5.667 0-10.637 3.65-10.637 10.708 0 7.059 4.879 10.708 10.637 10.708zM118.747.24v8.314h-8.728V.24h-4.545v20.938h4.545v-8.764h8.728v8.764h4.576V.239h-4.576zM127.225 21.177h14.759v-3.889h-10.213v-4.875h7.879V8.524h-7.879V4.098h9.879V.239h-14.425v20.938zM154.181 21.416c6.213 0 10.819-4.547 10.819-10.708C165 4.546 160.394 0 154.181 0c-6.242 0-10.849 4.546-10.849 10.708 0 6.161 4.607 10.708 10.849 10.708zm-.03-3.888c-3.637 0-6.243-2.902-6.243-6.82s2.606-6.85 6.243-6.85c3.637 0 6.273 2.932 6.273 6.85 0 3.918-2.636 6.82-6.273 6.82z" fill="#063C4F"></path></svg>